<?xml version="1.0" encoding="utf-8"?>
<!-- Generator: Adobe Illustrator 26.5.0, SVG Export Plug-In . SVG Version: 6.00 Build 0)  -->
<svg version="1.1" id="Layer_1" xmlns="http://www.w3.org/2000/svg" xmlns:xlink="http://www.w3.org/1999/xlink" x="0px" y="0px"
	 viewBox="0 0 1899.1 385" style="enable-background:new 0 0 1899.1 385;" xml:space="preserve">
<style type="text/css">
	.st0{fill:#021E51;}
	.st1{fill:#FFB11A;}
</style>
<g>
	<polygon class="st0" points="819.4,376.9 819.4,286.9 882,286.9 882,293.3 826.3,293.3 826.3,327.8 877.4,327.8 877.4,334 
		826.3,334 826.3,377.1 819.4,377.1 	"/>
	<rect x="914.5" y="286.9" class="st0" width="7.2" height="90"/>
	<path class="st0" d="M961.5,376.9v-90h7.2l49.8,66.4c0.5,0.5,1.3,1.5,2,2.6c0.8,1,1.5,2.3,2.6,3.6c0.8,1.3,1.5,2.3,2.3,3.3h0.5
		v-4.6v-4.6v-66.4h7.2v89.9h-5.6l-50.9-68.5c-0.5-0.8-1.8-2.3-3.1-4.1c-1.5-2-2.8-3.8-4.1-5.6h-0.5v4.9v4.9v68.5h-7.4V376.9z"/>
	<path class="st0" d="M1061.2,376.9l36.3-89.9h10.2l36.3,89.9h-7.7l-10.5-26.1h-47l-10.5,26.1H1061.2z M1081.4,344.7h41.7l-13-32.7
		c-0.3-0.8-0.8-1.8-1.3-3.1c-0.5-1.3-1-3.1-1.8-4.9c-0.8-1.8-1.5-3.8-2-5.6c-0.8-2-1.5-3.8-2-5.4h-1c-0.5,1.8-1.3,3.6-2.3,5.9
		c-0.8,2.3-1.8,4.6-2.6,6.9c-0.8,2.3-1.8,4.3-2.3,6.1L1081.4,344.7z"/>
	<path class="st0" d="M1172.3,376.9v-90h7.2l49.8,66.4c0.5,0.5,1.3,1.5,2,2.6c0.8,1,1.5,2.3,2.6,3.6c0.8,1.3,1.5,2.3,2.3,3.3h0.5
		v-4.6v-4.6v-66.4h7.2v89.9h-5.6l-50.9-68.5c-0.5-0.8-1.8-2.3-3.1-4.1c-1.5-2-2.8-3.8-4.1-5.6h-0.5v4.9v4.9v68.5h-7.4V376.9z"/>
	<path class="st0" d="M1320.5,378.7c-9.2,0-16.9-1.8-23.3-5.4c-6.1-3.6-11-8.7-14.1-15.6c-3.1-6.9-4.9-15.6-4.9-25.8
		c0-15.3,3.8-27.1,11.2-34.8c7.4-7.9,17.9-11.8,31.2-11.8c7.9,0,14.8,1.3,20.7,3.6c5.9,2.6,10.5,6.1,13.8,11
		c3.3,4.9,4.9,11,4.9,18.4h-7.2c0-6.4-1.3-11.5-3.8-15.3c-2.6-3.8-6.4-6.9-11.2-8.7c-4.9-1.8-10.7-2.8-17.6-2.8
		c-6.6,0-12.8,1.3-17.9,3.8c-5.4,2.6-9.5,6.9-12.3,12.5c-2.8,5.9-4.3,13.5-4.3,23v2.8c0,9.2,1.5,16.6,4.3,22.2
		c2.8,5.6,6.9,9.7,12.3,12.3c5.4,2.6,11.2,3.8,18.1,3.8c6.6,0,12.5-1,17.4-2.8c4.9-1.8,8.7-4.9,11.2-8.7c2.6-3.8,3.8-8.9,3.8-15.3
		h6.9c0,7.7-1.8,13.8-5.1,18.7c-3.3,4.9-8.2,8.4-14.1,11C1335.1,377.4,1328.2,378.7,1320.5,378.7"/>
	<polygon class="st0" points="1394.4,376.9 1394.4,286.9 1462.6,286.9 1462.6,293.3 1401.6,293.3 1401.6,327.8 1457,327.8 
		1457,334.2 1401.6,334.2 1401.6,371 1463.4,371 1463.4,377.4 1394.4,377.4 	"/>
	<polygon class="st0" points="1541.1,376.9 1541.1,286.9 1548.2,286.9 1548.2,370.8 1592.7,370.8 1592.7,377.1 1541.1,377.1 	"/>
	<path class="st0" d="M1608.8,376.9l36.3-89.9h10.2l36.3,89.9h-7.7l-10.5-26.1h-47l-10.5,26.1H1608.8z M1629,344.7h41.7l-13-32.7
		c-0.3-0.8-0.8-1.8-1.3-3.1c-0.5-1.3-1-3.1-1.8-4.9c-0.8-1.8-1.5-3.8-2-5.6c-0.8-2-1.5-3.8-2-5.4h-1c-0.5,1.8-1.3,3.6-2.3,5.9
		c-0.8,2.3-1.8,4.6-2.6,6.9c-0.8,2.3-1.8,4.3-2.3,6.1L1629,344.7z"/>
	<path class="st0" d="M1719.7,376.9v-89.9h43.4c5.4,0,10,0.8,13.8,2.6c3.8,1.8,6.6,4.1,8.4,7.4c2,3.1,2.8,6.9,2.8,11.5
		c0,3.3-0.5,6.6-1.8,9.5c-1,2.8-2.8,5.4-4.9,7.4c-2,2-4.6,3.6-7.4,4.3v0.5c3.1,0.8,5.6,1.8,8.2,3.6c2.6,1.8,4.6,4.1,6.1,6.9
		c1.5,3.1,2.3,6.9,2.3,11.8c0,6.1-1.3,11-3.6,14.6c-2.3,3.6-5.6,6.1-9.7,7.7c-4.1,1.5-8.9,2.3-14.3,2.3H1719.7z M1726.9,327.6h36.3
		c3.3,0,6.4-0.8,9.2-2c2.8-1.5,4.9-3.6,6.4-6.1c1.5-2.6,2.6-5.9,2.6-9.5c0-5.6-1.5-10-4.6-12.5c-3.1-2.8-7.2-4.1-12.3-4.1h-37.3
		v34.2H1726.9z M1726.9,370.8h38.3c5.6,0,10-1.3,13.3-4.1c3.3-2.8,5.1-7.4,5.1-14.3c0-4.3-0.8-7.9-2.3-10.7
		c-1.5-2.8-3.6-4.6-6.4-5.9c-2.8-1.3-6.4-1.8-10.5-1.8h-37.6V370.8z"/>
	<path class="st0" d="M1856.9,378.7c-4.9,0-9.5-0.5-14.1-1.3c-4.6-0.8-8.4-2-12-4.1c-3.6-2-6.4-4.6-8.4-7.9c-2-3.3-3.1-7.7-3.1-13
		v-1c0-0.3,0-0.8,0.3-1.3h7.2c0,0.5-0.3,1-0.3,1.5v1.8c0,4.3,1.3,7.9,3.8,10.7c2.6,2.8,6.1,4.9,10.5,6.4c4.3,1.3,9.2,2,14.6,2
		c1,0,2.8,0,5.4-0.3c2.3-0.3,4.9-0.5,7.7-1.3c2.8-0.8,5.4-1.5,7.9-3.1c2.6-1.3,4.6-3.1,6.1-5.4c1.5-2.3,2.3-5.1,2.3-8.7
		c0-3.6-1-6.4-2.8-8.7c-1.8-2.3-4.1-4.3-7.2-5.6c-3.1-1.5-6.4-2.8-10.2-3.8c-3.8-1-7.7-2-11.8-3.1c-4.1-1-7.9-2-11.8-3.3
		c-3.8-1.3-7.2-2.6-10.2-4.3c-3.1-1.8-5.4-4.1-7.2-6.6c-1.8-2.8-2.8-6.1-2.8-10c0-3.1,0.5-6.1,1.8-8.9c1.3-2.8,3.1-5.1,5.9-7.2
		c2.8-2,6.4-3.6,10.7-4.9c4.3-1.3,10-1.8,16.6-1.8c4.6,0,8.7,0.5,12.8,1.5c3.8,1,7.4,2.3,10.2,4.3c3.1,2,5.4,4.6,6.9,7.7
		c1.5,3.1,2.6,6.6,2.6,11v1.5h-7.2v-2.8c0-3.6-1-6.4-3.3-8.9c-2.3-2.6-5.1-4.3-8.7-5.9c-3.6-1.3-7.7-2-12.3-2
		c-6.9,0-12.3,0.8-16.6,2c-4.3,1.3-7.4,3.3-9.2,5.6c-2,2.3-3.1,4.9-3.1,7.7c0,3.3,1,6.1,2.8,8.2c1.8,2.3,4.1,4.1,7.2,5.4
		c3.1,1.3,6.4,2.6,10.2,3.6c3.8,1,7.7,2,11.5,3.1c4.1,1,7.9,2,11.5,3.3c3.8,1.3,7.2,2.8,10.2,4.6c3.1,1.8,5.4,4.1,7.2,6.9
		c1.8,2.8,2.8,6.1,2.8,10.5c0,5.9-1.5,10.7-4.6,14.8c-3.1,3.8-7.2,6.6-12.5,8.4C1870,377.6,1863.8,378.7,1856.9,378.7"/>
	<path class="st1" d="M1829.3,225.3c3.3-1.3,4.9-4.6,4.9-10c0-5.4-5.6-23.5-17.1-54.4h-97.9c-9.2,27.1-13.8,44.2-13.8,51.1
		s1.8,11.2,5.4,12.8c3.6,1.5,10,2.3,19.2,2.3l0.8,3.8h-72.1l0.8-3.8c6.1,0,11-0.5,14.6-1.5c3.6-1,7.4-3.8,11.5-8.4
		c4.1-4.6,8.2-11.2,12-19.9c3.8-8.7,8.4-21,13.8-36.8l28.6-82.3c10-29.1,15.1-46.8,15.1-52.9s-1.5-10.2-4.6-12
		c-3.1-1.8-8.7-2.8-17.4-2.8l-0.5-3.6h52.9l56.7,153.6c9.7,25.6,16.1,41.7,19.4,48.3c3.3,6.9,6.4,11.2,9.5,13
		c5.4,3.6,12,5.4,20.2,5.4l0.8,3.8h-80.2l0.8-3.8C1820.4,227.4,1826,226.6,1829.3,225.3 M1767.5,24l-45.2,129.3h92.8L1767.5,24z"/>
	<path class="st1" d="M1584.8,79.2v79.5c0,23,0.8,38.6,2,46.8c1.3,8.4,3.3,13.5,5.9,15.6c4.9,4.1,12.8,6.1,23.5,6.1l0.8,3.8h-86.6
		l0.8-3.8c5.4,0,9.5-0.3,12.5-0.8c3.1-0.5,5.9-1.5,8.4-3.6c2.6-2,4.6-4.1,5.9-6.6c1.3-2.6,2.3-6.6,3.1-12.3c1-7.4,1.5-22.7,1.5-45.5
		V79.2c0-22.2-0.8-37.8-2-46.5c-1.3-8.7-3.3-14.3-5.9-16.4c-5.1-4.1-13-6.1-23.8-6.1l-0.5-3.3h86.6l-0.8,3.6
		c-10.7,0-18.4,2-23.5,6.1C1587.6,20.9,1584.8,41.9,1584.8,79.2"/>
	<path class="st1" d="M1488.4,231.2h-161.5l0.8-3.8c10.7,0,18.4-2,23.5-6.1c5.4-4.6,7.9-25.3,7.9-62.6V79.2c0-22.7-0.8-38.6-2-47
		c-1.3-8.4-3.3-13.8-5.9-15.8c-4.9-4.1-12.8-6.1-23.5-6.1l-0.8-3.3h149.7v46l-3.8-0.8c0-14.3-7.4-24.3-22.5-29.9
		c-15.1-5.6-38.1-8.4-69-8.4v100.9c20.4,0,35.3-1,44.2-3.3c8.9-2,14.8-5.4,17.4-9.7c2.6-4.3,3.8-11.8,3.8-22l3.6-0.8v77.9l-3.6-0.8
		c0-10.5-1.3-17.9-3.8-22.2c-2.6-4.3-8.4-7.4-17.4-9.5c-8.9-2-23.8-3.1-44.2-3.1v41.4c0,22.7,0.8,37.8,2.3,45.2
		c1.5,7.4,5.1,12.5,10.7,15.1c60.3,0,90.5-12.8,90.5-38.6l3.8-0.8v47.5H1488.4z"/>
	<path class="st1" d="M1253.3,79.2v79.5c0,31.9,1.5,51.4,4.9,57.8c1,2.6,2.8,4.9,5.4,6.6c2.6,2,5.4,3.1,8.4,3.6
		c3.1,0.5,7.2,0.8,12.3,0.8l0.8,3.8h-86.6l0.8-3.8c5.4,0,9.5-0.3,12.8-0.8c3.1-0.5,5.9-1.5,8.7-3.6c2.6-2,4.6-4.1,5.9-6.6
		c1.3-2.6,2.3-6.6,3.1-12.3c1-7.4,1.5-22.7,1.5-45.5v-35.3h-129.8v35.3c0,23,0.8,38.6,2,46.8c1.3,8.4,3.3,13.5,5.9,15.6
		c4.9,4.1,12.8,6.1,23.5,6.1l0.8,3.8h-86.6l0.8-3.8c5.4,0,9.5-0.3,12.5-0.8c3.1-0.5,5.9-1.5,8.4-3.6c2.6-2,4.6-4.1,5.9-6.6
		c1.3-2.6,2.3-6.6,3.1-12.3c1-7.4,1.5-22.7,1.5-45.5V79.2c0-22.2-0.8-37.8-2-46.5c-1.3-8.7-3.3-14.3-5.9-16.4
		c-5.1-4.1-13-6.1-23.8-6.1l-0.8-3.3h86.6l-0.8,3.6c-10.7,0-18.4,2-23.5,6.1c-5.4,4.6-7.9,25.6-7.9,62.9v36h129.8V79.2
		c0-31.9-1.5-51.1-4.9-58c-1-2.6-3.1-4.9-5.6-6.6c-2.6-2-5.6-3.1-8.7-3.6c-3.1-0.5-7.4-0.8-12.8-0.8l-0.5-3.3h86.6l-0.8,3.6
		c-5.1,0-9.2,0.3-12.3,0.8c-3.1,0.5-5.9,1.5-8.4,3.6c-2.6,2-4.3,4.1-5.6,6.6c-1.3,2.6-2.3,6.6-3.1,12.5
		C1253.9,43.1,1253.3,58.2,1253.3,79.2"/>
	<path class="st1" d="M819.9,6.9h184.8v46l-3.3-0.8c0-26.1-25.8-39.1-77.7-39.1v145.7c0,31.7,1.8,50.9,5.4,57.8
		c1.3,2.6,3.6,4.9,6.6,6.6c3.3,2,6.6,3.1,10.2,3.6c3.6,0.5,8.7,0.8,15.1,0.8l0.8,3.8h-98.6l0.8-3.8c6.4,0,11.5-0.3,15.3-0.5
		c3.8-0.3,7.2-1.5,10.2-3.6c3.1-2,5.4-4.3,6.6-6.6c1.3-2.3,2.6-6.6,3.6-12.5c1-7.2,1.5-22.2,1.5-45.2V13.2
		c-51.6,0-77.7,13-77.7,39.1l-3.8,0.8V6.9H819.9z"/>
	<path class="st1" d="M711.1,337.3C650,308.9,358.4,183.9,358.4,183.9L8.1,337.3C19.1,152.8,172.1,6.3,359.5,6.3
		S700.1,152.8,711.1,337.3"/>
	<rect x="7.1" y="364.9" class="st1" width="704.5" height="11.5"/>
</g>
</svg>
